<svg width="181" height="40" viewBox="0 0 181 40" fill="none" xmlns="http://www.w3.org/2000/svg">
<path d="M26.1109 19.5743L22.1421 28.8535H36.5145C38.0786 24.2074 38.8837 14.6227 29.381 12" stroke="#243763" stroke-width="4.47192" stroke-linecap="round"/>
<path d="M19.3613 21.2792L23.3301 12L18.9986 12C12.9987 12 6.8159 16.1451 8.56407 21.8847C9.48695 24.9147 11.6769 27.6352 16.0912 28.8535" stroke="#FF6E31" stroke-width="4.47192" stroke-linecap="round"/>
<path d="M44.5452 27V13.8H49.2052C50.8186 13.8 52.1319 14.06 53.1452 14.58C54.1586 15.1 54.9052 15.8467 55.3852 16.82C55.8786 17.78 56.1252 18.9333 56.1252 20.28C56.1252 21.5867 55.9319 22.6733 55.5452 23.54C55.1719 24.4067 54.6786 25.0933 54.0652 25.6C53.4519 26.1067 52.7719 26.4667 52.0252 26.68C51.2786 26.8933 50.5386 27 49.8052 27H44.5452ZM49.3252 16.44H47.7652V24.36H49.7052C50.2519 24.36 50.7519 24.2533 51.2052 24.04C51.6719 23.8133 52.0452 23.42 52.3252 22.86C52.6186 22.2867 52.7652 21.48 52.7652 20.44C52.7652 18.9467 52.4586 17.9067 51.8452 17.32C51.2452 16.7333 50.4052 16.44 49.3252 16.44ZM62.9413 27.28C61.1013 27.28 59.7213 26.7933 58.8013 25.82C57.8813 24.8467 57.4213 23.5467 57.4213 21.92C57.4213 20.84 57.6213 19.8667 58.0213 19C58.4213 18.12 59.0147 17.4267 59.8013 16.92C60.6013 16.4133 61.5747 16.16 62.7213 16.16C63.8813 16.16 64.8413 16.4133 65.6013 16.92C66.3613 17.4267 66.908 18.1467 67.2413 19.08C67.588 20 67.6947 21.08 67.5613 22.32L60.5413 22.4C60.6213 23.2933 60.8747 23.94 61.3013 24.34C61.728 24.74 62.2747 24.94 62.9413 24.94C63.6213 24.94 64.0947 24.7733 64.3613 24.44C64.6413 24.1067 64.8013 23.72 64.8413 23.28L67.7013 23.74C67.6347 24.3667 67.4347 24.9533 67.1013 25.5C66.768 26.0333 66.2613 26.4667 65.5813 26.8C64.9147 27.12 64.0347 27.28 62.9413 27.28ZM62.7613 18.64C62.188 18.64 61.7213 18.82 61.3613 19.18C61.0013 19.54 60.7547 20.04 60.6213 20.68L64.6413 20.64C64.6013 19.96 64.408 19.46 64.0613 19.14C63.7147 18.8067 63.2813 18.64 62.7613 18.64ZM71.4351 27L68.0751 16.46H71.6151L73.5551 24.42H73.7951L75.7951 16.46H79.1351L75.7751 27H71.4351ZM84.9921 27.28C83.1521 27.28 81.7721 26.7933 80.8521 25.82C79.9321 24.8467 79.4721 23.5467 79.4721 21.92C79.4721 20.84 79.6721 19.8667 80.0721 19C80.4721 18.12 81.0654 17.4267 81.8521 16.92C82.6521 16.4133 83.6254 16.16 84.7721 16.16C85.9321 16.16 86.8921 16.4133 87.6521 16.92C88.4121 17.4267 88.9588 18.1467 89.2921 19.08C89.6388 20 89.7454 21.08 89.6121 22.32L82.5921 22.4C82.6721 23.2933 82.9254 23.94 83.3521 24.34C83.7788 24.74 84.3254 24.94 84.9921 24.94C85.6721 24.94 86.1454 24.7733 86.4121 24.44C86.6921 24.1067 86.8521 23.72 86.8921 23.28L89.7521 23.74C89.6854 24.3667 89.4854 24.9533 89.1521 25.5C88.8188 26.0333 88.3121 26.4667 87.6321 26.8C86.9654 27.12 86.0854 27.28 84.9921 27.28ZM84.8121 18.64C84.2388 18.64 83.7721 18.82 83.4121 19.18C83.0521 19.54 82.8054 20.04 82.6721 20.68L86.6921 20.64C86.6521 19.96 86.4588 19.46 86.1121 19.14C85.7654 18.8067 85.3321 18.64 84.8121 18.64ZM91.3784 27V12.74H94.5784V27H91.3784ZM101.571 27.28C100.518 27.28 99.5842 27.08 98.7709 26.68C97.9709 26.2667 97.3375 25.6467 96.8709 24.82C96.4175 23.9933 96.1909 22.96 96.1909 21.72C96.1909 20.4533 96.4242 19.4133 96.8909 18.6C97.3575 17.7733 97.9975 17.16 98.8109 16.76C99.6242 16.36 100.551 16.16 101.591 16.16C102.658 16.16 103.591 16.3667 104.391 16.78C105.204 17.18 105.838 17.7933 106.291 18.62C106.758 19.4467 106.991 20.48 106.991 21.72C106.991 23 106.751 24.0533 106.271 24.88C105.791 25.6933 105.144 26.3 104.331 26.7C103.518 27.0867 102.598 27.28 101.571 27.28ZM101.671 24.92C102.271 24.92 102.764 24.6933 103.151 24.24C103.538 23.7733 103.731 23 103.731 21.92C103.731 20.76 103.518 19.9267 103.091 19.42C102.664 18.9 102.131 18.64 101.491 18.64C100.891 18.64 100.398 18.8733 100.011 19.34C99.6375 19.8067 99.4509 20.5867 99.4509 21.68C99.4509 22.8267 99.6575 23.6533 100.071 24.16C100.498 24.6667 101.031 24.92 101.671 24.92ZM118.261 27.28C116.488 27.28 115.101 26.9267 114.101 26.22C113.101 25.5 112.575 24.46 112.521 23.1L115.401 22.24C115.455 23.12 115.761 23.7667 116.321 24.18C116.895 24.58 117.595 24.78 118.421 24.78C119.168 24.78 119.748 24.6467 120.161 24.38C120.588 24.1133 120.801 23.7933 120.801 23.42C120.801 22.9667 120.528 22.6267 119.981 22.4C119.448 22.16 118.761 21.94 117.921 21.74C117.281 21.58 116.655 21.4067 116.041 21.22C115.428 21.02 114.868 20.7733 114.361 20.48C113.868 20.1867 113.468 19.8067 113.161 19.34C112.868 18.86 112.721 18.2667 112.721 17.56C112.721 16.32 113.188 15.34 114.121 14.62C115.068 13.8867 116.368 13.52 118.021 13.52C119.128 13.52 120.088 13.6933 120.901 14.04C121.715 14.3733 122.341 14.8533 122.781 15.48C123.235 16.1067 123.455 16.8467 123.441 17.7L120.541 18.4C120.541 17.6267 120.321 17.0333 119.881 16.62C119.441 16.2067 118.808 16 117.981 16C117.261 16 116.715 16.1267 116.341 16.38C115.981 16.6333 115.801 16.94 115.801 17.3C115.801 17.7533 116.081 18.1 116.641 18.34C117.201 18.5667 117.901 18.78 118.741 18.98C119.315 19.1133 119.901 19.2733 120.501 19.46C121.115 19.6333 121.675 19.8733 122.181 20.18C122.701 20.4867 123.121 20.8867 123.441 21.38C123.761 21.8733 123.921 22.5 123.921 23.26C123.921 24.5267 123.421 25.5133 122.421 26.22C121.435 26.9267 120.048 27.28 118.261 27.28ZM129.718 27.26C128.358 27.26 127.411 26.8933 126.878 26.16C126.345 25.4267 126.078 24.4333 126.078 23.18V18.96H124.678L124.718 16.62H125.438C126.011 16.58 126.425 16.4467 126.678 16.22C126.945 15.98 127.111 15.5867 127.178 15.04L127.358 14.08H129.198V16.44H131.698V19.06H129.198V22.98C129.198 23.5133 129.325 23.8733 129.578 24.06C129.845 24.2467 130.165 24.34 130.538 24.34C131.018 24.34 131.425 24.24 131.758 24.04V26.96C131.331 27.08 130.945 27.16 130.598 27.2C130.265 27.24 129.971 27.26 129.718 27.26ZM136.91 27.28C135.696 27.28 134.783 26.8733 134.17 26.06C133.57 25.2333 133.27 23.96 133.27 22.24V16.44H136.51V21.66C136.51 21.9 136.516 22.1867 136.53 22.52C136.556 22.8533 136.616 23.18 136.71 23.5C136.803 23.8067 136.956 24.0667 137.17 24.28C137.396 24.48 137.71 24.58 138.11 24.58C138.776 24.58 139.29 24.2467 139.65 23.58C140.01 22.9133 140.19 22.02 140.19 20.9V16.44H143.43V27H140.79L140.75 23.44H140.45C140.21 24.8 139.816 25.78 139.27 26.38C138.723 26.98 137.936 27.28 136.91 27.28ZM149.378 27.28C148.538 27.28 147.791 27.0667 147.138 26.64C146.498 26.2 145.998 25.56 145.638 24.72C145.278 23.88 145.098 22.86 145.098 21.66C145.098 19.9933 145.451 18.6667 146.158 17.68C146.865 16.68 147.891 16.18 149.238 16.18C150.198 16.18 150.958 16.46 151.518 17.02C152.091 17.5667 152.505 18.4267 152.758 19.6H153.138C153.005 18.9467 152.891 18.3133 152.798 17.7C152.705 17.0867 152.658 16.5533 152.658 16.1V12.74H155.898V27H153.198L153.178 23.82H152.838C152.611 25.02 152.211 25.9 151.638 26.46C151.065 27.0067 150.311 27.28 149.378 27.28ZM150.518 24.68C150.998 24.68 151.398 24.5467 151.718 24.28C152.038 24.0133 152.278 23.6667 152.438 23.24C152.598 22.8133 152.678 22.36 152.678 21.88V21.56C152.678 21.0533 152.585 20.5933 152.398 20.18C152.211 19.7533 151.951 19.42 151.618 19.18C151.285 18.9267 150.905 18.8 150.478 18.8C149.825 18.8 149.318 19.08 148.958 19.64C148.611 20.2 148.438 20.9 148.438 21.74C148.438 22.6067 148.625 23.3133 148.998 23.86C149.371 24.4067 149.878 24.68 150.518 24.68ZM158.019 27V16.44H161.239V27H158.019ZM159.639 15.22C158.372 15.22 157.739 14.7133 157.739 13.7C157.739 12.6733 158.372 12.16 159.639 12.16C160.919 12.16 161.559 12.6733 161.559 13.7C161.559 14.18 161.392 14.5533 161.059 14.82C160.739 15.0867 160.266 15.22 159.639 15.22ZM168.231 27.28C167.178 27.28 166.244 27.08 165.431 26.68C164.631 26.2667 163.998 25.6467 163.531 24.82C163.078 23.9933 162.851 22.96 162.851 21.72C162.851 20.4533 163.084 19.4133 163.551 18.6C164.018 17.7733 164.658 17.16 165.471 16.76C166.284 16.36 167.211 16.16 168.251 16.16C169.318 16.16 170.251 16.3667 171.051 16.78C171.864 17.18 172.498 17.7933 172.951 18.62C173.418 19.4467 173.651 20.48 173.651 21.72C173.651 23 173.411 24.0533 172.931 24.88C172.451 25.6933 171.804 26.3 170.991 26.7C170.178 27.0867 169.258 27.28 168.231 27.28ZM168.331 24.92C168.931 24.92 169.424 24.6933 169.811 24.24C170.198 23.7733 170.391 23 170.391 21.92C170.391 20.76 170.178 19.9267 169.751 19.42C169.324 18.9 168.791 18.64 168.151 18.64C167.551 18.64 167.058 18.8733 166.671 19.34C166.298 19.8067 166.111 20.5867 166.111 21.68C166.111 22.8267 166.318 23.6533 166.731 24.16C167.158 24.6667 167.691 24.92 168.331 24.92Z" fill="black"/>
</svg>
